<svg xmlns="http://www.w3.org/2000/svg" width="35" height="35" viewBox="0 0 35 35">
    <g fill="none" fill-rule="evenodd">
        <g>
            <g>
                <g>
                    <g>
                        <g>
                            <g fill="#201F35" transform="translate(-46 -333) translate(0 75) translate(0 14) translate(0 233) translate(46 11)">
                                <circle cx="17.5" cy="17.5" r="17.5"/>
                            </g>
                            <path fill="#FFF" d="M20 15.5c3.728 0 6.75 3.022 6.75 6.75v4.5c0 1.243-1.007 2.25-2.25 2.25H11c-1.243 0-2.25-1.007-2.25-2.25v-4.5c0-3.728 3.022-6.75 6.75-6.75H20zM17.75 4.25c2.796 0 5.062 2.267 5.062 5.062 0 2.796-2.266 5.063-5.062 5.063-2.796 0-5.063-2.267-5.063-5.063 0-2.795 2.267-5.062 5.063-5.062z" transform="translate(-46 -333) translate(0 75) translate(0 14) translate(0 233) translate(46 11)"/>
                            <g fill="#201F35">
                                <path d="M10.598-.22l1.05 1.038c.117.117.118.307.002.425l-.002.001-6.296 6.252c-.112.111-.292.116-.41.011L.86 3.886c-.124-.11-.135-.3-.025-.424l.013-.014L1.9 2.405c.11-.11.285-.117.404-.017L4.94 4.594c.12.1.294.092.404-.017l4.83-4.796c.118-.116.306-.116.423 0z" transform="translate(-46 -333) translate(0 75) translate(0 14) translate(0 233) translate(46 11) translate(11.5 19.25)"/>
                            </g>
                        </g>
                    </g>
                </g>
            </g>
        </g>
    </g>
</svg>
