<svg xmlns="http://www.w3.org/2000/svg" width="35" height="35" viewBox="0 0 35 35">
    <g fill="none" fill-rule="evenodd">
        <g>
            <g>
                <g>
                    <g>
                        <g>
                            <g fill="#FFF" stroke="#201F35" stroke-width="2.5" transform="translate(-46 -151) translate(0 75) translate(0 14) translate(0 51) translate(46 11)">
                                <circle cx="17.5" cy="17.5" r="16.25"/>
                            </g>
                            <path fill="#201F35" d="M19.25 15c.414 0 .75.336.75.75v13.5c0 .414-.336.75-.75.75h-3.5c-.414 0-.75-.336-.75-.75v-13.5c0-.414.336-.75.75-.75h3.5zM17.5 7.5c1.38 0 2.5 1.12 2.5 2.5s-1.12 2.5-2.5 2.5S15 11.38 15 10s1.12-2.5 2.5-2.5z" transform="translate(-46 -151) translate(0 75) translate(0 14) translate(0 51) translate(46 11)"/>
                        </g>
                    </g>
                </g>
            </g>
        </g>
    </g>
</svg>
