<svg xmlns="http://www.w3.org/2000/svg" width="35" height="35" viewBox="0 0 35 35">
    <g fill="none" fill-rule="evenodd">
        <g>
            <g>
                <g>
                    <g>
                        <g>
                            <g fill="#201F35" transform="translate(-46 -242) translate(0 75) translate(0 14) translate(0 142) translate(46 11)">
                                <circle cx="17.5" cy="17.5" r="17.5"/>
                            </g>
                            <path fill="#FFF" d="M24.25 6.25c.414 0 .75.336.75.75v21c0 .414-.336.75-.75.75h-13.5c-.414 0-.75-.336-.75-.75V7c0-.414.336-.75.75-.75h13.5zm-2.5 15h-8.5c-.414 0-.75.336-.75.75v1c0 .414.336.75.75.75h8.5c.414 0 .75-.336.75-.75v-1c0-.414-.336-.75-.75-.75zm0-5h-8.5c-.414 0-.75.336-.75.75v1c0 .414.336.75.75.75h8.5c.414 0 .75-.336.75-.75v-1c0-.414-.336-.75-.75-.75zm0-5h-8.5c-.414 0-.75.336-.75.75v1c0 .414.336.75.75.75h8.5c.414 0 .75-.336.75-.75v-1c0-.414-.336-.75-.75-.75z" transform="translate(-46 -242) translate(0 75) translate(0 14) translate(0 142) translate(46 11)"/>
                        </g>
                    </g>
                </g>
            </g>
        </g>
    </g>
</svg>
