<svg xmlns="http://www.w3.org/2000/svg" width="35" height="35" viewBox="0 0 35 35">
    <g fill="none" fill-rule="evenodd">
        <g>
            <g>
                <g>
                    <g>
                        <g transform="translate(-46 -424) translate(0 75) translate(0 14) translate(0 324) translate(46 11)">
                            <circle cx="17.5" cy="17.5" r="17.5" fill="#201F35"/>
                            <path fill="#FFF" d="M30 15c1.38 0 2.5 1.12 2.5 2.5S31.38 20 30 20c-1.165 0-2.144-.797-2.421-1.875H19.92C19.644 19.203 18.665 20 17.5 20c-1.165 0-2.144-.797-2.421-1.875H7.42C7.144 19.203 6.165 20 5 20c-1.38 0-2.5-1.12-2.5-2.5S3.62 15 5 15c1.165 0 2.144.797 2.421 1.876h7.658C15.356 15.797 16.335 15 17.5 15c1.165 0 2.144.797 2.421 1.876h7.658C27.856 15.797 28.835 15 30 15zm0 .625c-1.036 0-1.875.84-1.875 1.875 0 1.036.84 1.875 1.875 1.875 1.036 0 1.875-.84 1.875-1.875 0-1.036-.84-1.875-1.875-1.875z"/>
                        </g>
                    </g>
                </g>
            </g>
        </g>
    </g>
</svg>
