<svg xmlns="http://www.w3.org/2000/svg" width="50" height="50" viewBox="0 0 50 50">
    <g fill="none" fill-rule="evenodd">
        <g>
            <g transform="translate(-163 -8) translate(163 8)">
                <circle cx="25" cy="25" r="25" fill="#E8E9EE"/>
                <g transform="translate(12 3)">
                    <path fill="#3A4886" d="M13.285 0c1.834 0 7.419 4.968 9.277 14.193.536 2.658.095 7.39-1.321 14.193-3.47-1.904-6.121-2.856-7.956-2.856-1.834 0-4.434.952-7.799 2.856C3.992 21.548 3.5 16.817 4.01 14.193 5.834 4.789 11.435 0 13.285 0zm.014 7.567c-1.83 0-3.314 1.483-3.314 3.313s1.484 3.313 3.314 3.313 3.313-1.483 3.313-3.313-1.484-3.313-3.313-3.313z"/>
                    <rect width="1.325" height="11.927" x="12.296" y="28.966" fill="#58A4B0" rx=".663"/>
                    <rect width="1.325" height="6.051" x="15.61" y="32.942" fill="#BCDBDF" rx=".663"/>
                    <rect width="1.325" height="3.397" x="8.756" y="31.243" fill="#BCDBDF" rx=".663"/>
                    <path fill="#9A031E" d="M9.419 39.888L8.523 40.544 8.643 39.44 7.628 38.993 8.643 38.545 8.523 37.441 9.419 38.097 10.315 37.441 10.195 38.545 11.21 38.993 10.195 39.44 10.315 40.544z"/>
                    <path fill="#201F35" d="M16.273 42.813L15.377 43.469 15.497 42.365 14.481 41.918 15.497 41.47 15.377 40.366 16.273 41.022 17.168 40.366 17.048 41.47 18.064 41.918 17.048 42.365 17.168 43.469z"/>
                    <path fill="#A9BCD0" d="M13.624 17.112L13.3 25.25l2.278 3.045c.105-1.617-.038-3.544-.428-5.78-.391-2.237-.9-4.038-1.525-5.402z"/>
                    <path fill="#A9BCD0" d="M1.272 17.397c-.195 2.084-.358 3.633-.49 4.646-.132 1.014-.313 2.11-.544 3.288l4.582 2.963c.214-1.617-.076-3.544-.87-5.78-.796-2.237-1.688-3.943-2.678-5.117z" transform="matrix(-1 0 0 1 5.127 0)"/>
                    <path fill="#A9BCD0" d="M22.754 17.397c-.194 2.084-.358 3.633-.49 4.646-.132 1.014-.313 2.11-.543 3.288l4.582 2.963c.214-1.617-.077-3.544-.872-5.78-.794-2.237-1.687-3.943-2.677-5.117z"/>
                </g>
            </g>
        </g>
    </g>
</svg>
